<svg aria-hidden="true" style="position: absolute; width: 0; height: 0; overflow: hidden;" version="1.1" xmlns="http://www.w3.org/2000/svg" xmlns:xlink="http://www.w3.org/1999/xlink">
<defs>
<symbol id="icon-phone" viewBox="0 0 32 32">
<path fill="#005fa3" style="fill: var(--color1, #005fa3)" d="M22.821 0h-13.643c-1.138 0-2.068 0.93-2.068 2.068v26.466c0 1.138 0.93 2.068 2.068 2.068h13.643c1.138 0 2.068-0.928 2.068-2.066v-26.469c0-1.136-0.93-2.066-2.068-2.066zM13.817 1.49h4.366c0.138 0 0.251 0.112 0.251 0.251s-0.112 0.251-0.251 0.251v0h-4.366c-0.138 0-0.251-0.112-0.251-0.251s0.112-0.251 0.251-0.251v0zM16 29.57c-0.571 0-1.034-0.463-1.034-1.034s0.463-1.034 1.034-1.034v0c0.571 0 1.034 0.463 1.034 1.034s-0.463 1.034-1.034 1.034v0zM23.449 26.779h-14.898v-23.504h14.898v23.502z"></path>
</symbol>
<symbol id="icon-clock" viewBox="0 0 32 32">
<path fill="#005fa3" style="fill: var(--color1, #005fa3)" d="M16 0c-8.837 0-16 7.163-16 16s7.163 16 16 16c8.837 0 16-7.163 16-16v0c-0.011-8.832-7.168-15.989-15.999-16h-0.001zM16.687 30.594v-2.816c0-0.379-0.308-0.687-0.687-0.687s-0.687 0.308-0.687 0.687v0 2.816c-7.526-0.371-13.535-6.381-13.904-13.873l-0.001-0.034h2.814c0.379 0 0.687-0.308 0.687-0.687s-0.308-0.687-0.687-0.687v0h-2.814c0.371-7.526 6.379-13.534 13.871-13.904l0.034-0.001v2.814c0 0.379 0.308 0.687 0.687 0.687s0.687-0.308 0.687-0.687v0-2.814c7.526 0.37 13.536 6.379 13.905 13.871l0.001 0.034h-2.816c-0.379 0-0.687 0.308-0.687 0.687s0.308 0.687 0.687 0.687v0h2.822c-0.37 7.529-6.383 13.54-13.879 13.905l-0.034 0.001z"></path>
<path fill="#005fa3" style="fill: var(--color1, #005fa3)" d="M23.241 22.383l-6.554-6.664v-6.929c0-0.379-0.308-0.687-0.687-0.687s-0.687 0.308-0.687 0.687v0 7.209c0 0.181 0.073 0.352 0.2 0.48l6.748 6.865c0.122 0.113 0.286 0.182 0.466 0.182 0.379 0 0.687-0.308 0.687-0.687 0-0.175-0.065-0.335-0.173-0.456l0.001 0.001z"></path>
</symbol>
<symbol id="icon-envelope" viewBox="0 0 32 32">
<path fill="#005fa3" style="fill: var(--color1, #005fa3)" d="M27.285 4.174h-23.484c-2.099 0.002-3.799 1.702-3.801 3.801v16.050c0.002 2.099 1.702 3.799 3.801 3.801h23.478c2.099-0.002 3.799-1.702 3.801-3.801v-16.045c0-0.002 0-0.005 0-0.007 0-2.097-1.699-3.797-3.795-3.8h-0zM29.35 24.025c0 1.138-0.925 2.065-2.063 2.065h-23.485c-1.14-0.001-2.064-0.925-2.065-2.065v-16.045c0-1.138 0.927-2.063 2.065-2.063h23.478c1.138 0 2.063 0.925 2.063 2.063v16.045h0.007z"></path>
<path fill="#005fa3" style="fill: var(--color1, #005fa3)" d="M19.601 15.801l7.601-6.817c0.176-0.16 0.287-0.39 0.287-0.647 0-0.223-0.084-0.427-0.222-0.581l0.001 0.001c-0.16-0.177-0.391-0.287-0.647-0.287-0.224 0-0.428 0.084-0.582 0.223l0.001-0.001-10.483 9.408-2.045-1.825c-0.007-0.007-0.014-0.014-0.014-0.019-0.043-0.043-0.089-0.083-0.137-0.12l-0.003-0.002-8.32-7.446c-0.153-0.138-0.356-0.222-0.58-0.222-0.258 0-0.489 0.112-0.648 0.291l-0.001 0.001c-0.138 0.153-0.222 0.356-0.222 0.579 0 0.258 0.113 0.49 0.292 0.649l0.001 0.001 7.691 6.874-7.659 7.171c-0.17 0.159-0.276 0.386-0.276 0.637 0 0.481 0.39 0.871 0.871 0.871 0.23 0 0.44-0.089 0.595-0.235l-0 0 7.775-7.272 2.109 1.884c0.152 0.135 0.354 0.218 0.575 0.218 0.225 0 0.429-0.085 0.583-0.225l-0.001 0.001 2.168-1.942 7.73 7.345c0.155 0.148 0.366 0.239 0.598 0.239 0.48 0 0.869-0.389 0.869-0.869 0-0.248-0.104-0.472-0.27-0.63l-0-0-7.634-7.249z"></path>
</symbol>
<symbol id="icon-placeholder" viewBox="0 0 32 32">
<path fill="#005fa3" style="fill: var(--color1, #005fa3)" d="M15.977 0c-6.474 0.007-11.72 5.253-11.727 11.726v0.001c0 2.972 1.871 7.168 5.564 12.476 1.85 2.64 3.643 4.924 5.548 7.108l-0.085-0.1 0.7 0.789 0.7-0.791c0.113-0.124 2.767-3.127 5.464-7.006 3.691-5.308 5.564-9.506 5.564-12.476-0.008-6.474-5.253-11.72-11.726-11.727h-0.001zM20.617 23.119c-1.615 2.298-3.138 4.264-4.743 6.159l0.103-0.124c-1.497-1.766-3.016-3.727-4.448-5.753l-0.179-0.266c-3.422-4.917-5.229-8.862-5.229-11.407 0.006-5.441 4.415-9.85 9.855-9.856h0.001c5.442 0.005 9.851 4.415 9.858 9.855v0.001c0 2.541-1.805 6.483-5.218 11.392z"></path>
<path fill="#005fa3" style="fill: var(--color1, #005fa3)" d="M15.977 4.335c-3.821 0.004-6.917 3.101-6.921 6.921v0c0.004 3.821 3.101 6.917 6.921 6.921h0c3.822-0.003 6.919-3.1 6.923-6.921v-0c-0.004-3.822-3.102-6.918-6.923-6.921h-0zM15.977 16.307c-2.788-0.003-5.047-2.262-5.050-5.050v-0c0.003-2.788 2.262-5.047 5.050-5.050h0c2.789 0.002 5.049 2.262 5.052 5.050v0c-0.003 2.789-2.264 5.048-5.052 5.050h-0z"></path>
</symbol>
<symbol id="icon-logo" viewBox="0 0 32 32">
<path fill="#fffaf7" style="fill: var(--color2, #fffaf7)" d="M26.067 3.56c-0.018-0.019-0.056-0.038-0.074-0.074 0.018 0.037 0.056 0.056 0.074 0.074zM25.715 3.282c0.093 0.074 0.185 0.148 0.278 0.204-0.093-0.056-0.185-0.13-0.278-0.204-0.018-0.018-0.056-0.037-0.074-0.056v0c0.018 0.019 0.056 0.038 0.074 0.056zM25.566 3.17v0zM25.362 3.022l0.038 0.037c0-0.018-0.018-0.018-0.038-0.037v0zM25.010 2.781c-0.037-0.018-0.056-0.037-0.093-0.056 0.038 0.019 0.074 0.038 0.093 0.056zM18.632 0.222c-0.055-0.018-0.129-0.018-0.184-0.037-0.038 0-0.056 0-0.094-0.018 0.038 0 0.056 0 0.093 0.018 0.056 0 0.13 0.018 0.186 0.037zM22.767 1.502c-0.167-0.074-0.315-0.148-0.464-0.204 0.168 0.056 0.315 0.13 0.464 0.204zM24.621 2.522c0.038 0.018 0.074 0.037 0.093 0.056-0.018-0.019-0.056-0.038-0.093-0.056zM20.858 0.742c-0.037-0.018-0.074-0.018-0.112-0.037-0.036-0.019-0.074-0.019-0.11-0.038 0.037 0.018 0.074 0.018 0.111 0.038 0.018 0.018 0.056 0.037 0.111 0.037zM20.246 0.574c-0.018-0.018-0.037-0.018-0.056-0.018h0.001c0.018 0 0.037 0 0.056 0.018zM22.192 1.242c0.056 0.018 0.093 0.037 0.112 0.056-0.038-0.019-0.056-0.038-0.112-0.056zM24.214 2.262l0.074 0.056c0.056 0.037 0.112 0.056 0.149 0.093-0.056-0.038-0.093-0.056-0.149-0.093l-0.074-0.056c-0.018 0-0.018-0.018-0.037-0.018 0.018 0.018 0.018 0.018 0.038 0.018zM26.197 3.671c-0.037-0.038-0.074-0.056-0.111-0.093 0.038 0.037 0.074 0.056 0.112 0.093zM23.99 2.132v0l-0.018-0.018c-0.018 0-0.018-0.018-0.037-0.018 0.018 0 0.018 0.018 0.037 0.018l0.018 0.018zM22.804 1.52l0.13 0.074c0.056 0.018 0.112 0.056 0.149 0.074-0.056-0.018-0.112-0.056-0.149-0.074l-0.13-0.074s0-0.018 0 0c0-0.018 0 0 0 0zM21.618 1.020c0.112 0.037 0.241 0.092 0.39 0.148 0.018 0 0.018 0 0.037 0.018-0.018 0-0.018 0-0.037-0.018-0.149-0.056-0.278-0.112-0.39-0.148v0zM0.167 13.682c0-0.018 0-0.056 0.018-0.074v0c-0.018 0.019-0.018 0.038-0.018 0.074zM0.093 14.22v-0.056c0.018 0.019 0 0.038 0 0.056zM0.037 14.832v0c0 0.056-0.018 0.13-0.018 0.186 0.018-0.074 0.018-0.13 0.018-0.186zM8.362 21.376c0 0.019 0.018 0.038 0.018 0.038-0.018 0-0.018-0.018-0.018-0.037zM16.594 0.018c0.352 0.018 0.722 0.037 1.075 0.074-0.352-0.038-0.704-0.074-1.075-0.074zM19.356 0.352c0.111 0.018 0.204 0.038 0.296 0.074-0.092-0.037-0.203-0.056-0.296-0.074zM23.12 1.669c0.24 0.111 0.463 0.241 0.686 0.37-0.223-0.13-0.446-0.259-0.686-0.37zM26.419 3.856c-0.037-0.018-0.056-0.056-0.093-0.074v0c0.038 0.018 0.074 0.056 0.093 0.074zM10.772 6.971c1.372-1.465 3.040-2.614 4.931-3.338 0.575-0.222 1.15-0.408 1.743-0.538-0.594 0.149-1.168 0.315-1.743 0.538-1.943 0.759-3.591 1.895-4.924 3.329l-0.008 0.008zM13.608 27.346c-1.61-0.98-2.952-2.238-3.995-3.721l-0.028-0.042c-0.354-0.5-0.693-1.071-0.986-1.669l-0.033-0.074c0.296 0.594 0.63 1.186 1.019 1.742 1.082 1.516 2.421 2.773 3.966 3.73l0.058 0.034zM3.43 24.214c-2.169-2.151-3.374-5.006-3.43-8.046v0c0.056 3.040 1.261 5.896 3.43 8.046zM26.772 4.171c0.037 0.038 0.056 0.056 0.092 0.074-0.018-0.018-0.055-0.037-0.092-0.074v0zM27.216 4.579l-0.055-0.056-0.074-0.074 0.074 0.074c0 0.018 0.038 0.037 0.056 0.056zM26.976 4.357c-0.019-0.018-0.056-0.037-0.074-0.074 0.018 0.019 0.037 0.056 0.074 0.074z"></path>
<path fill="#005fa3" style="fill: var(--color1, #005fa3)" d="M0.186 13.552v0.038c0 0.018 0 0.056-0.018 0.074v0.166c0 0.056-0.019 0.112-0.019 0.168s-0.018 0.092-0.018 0.147v0.056c0 0.056-0.018 0.112-0.018 0.167 0 0.037 0 0.093-0.018 0.13v0.297c0 0.056-0.018 0.13-0.018 0.185v0.909c-0.074 0.055-0.074 0.055-0.074 0.074v0.204c0.037 3.040 1.261 5.896 3.43 8.027 2.075 2.053 4.93 3.321 8.081 3.321 0.518 0 1.027-0.034 1.527-0.101l-0.059 0.006c0.222-0.018 0.426-0.056 0.648-0.093-1.61-0.98-2.951-2.239-3.994-3.722l-0.028-0.042c-0.354-0.5-0.694-1.071-0.987-1.668l-0.033-0.074c-0.074-0.13-0.13-0.278-0.186-0.408 0-0.018-0.018-0.037-0.018-0.037-0.715-1.581-1.131-3.427-1.131-5.371 0-0.002 0-0.004 0-0.006v0c0-2.726 0.816-5.339 2.374-7.583 0.352-0.518 0.742-1.001 1.168-1.446 1.372-1.465 3.040-2.614 4.931-3.338 0.575-0.222 1.15-0.408 1.743-0.538 0.894-0.224 1.92-0.352 2.976-0.352 0.023 0 0.045 0 0.067 0h-0.003c2.41 0 4.728 0.649 6.749 1.835l-0.148-0.148c-0.018-0.018-0.056-0.038-0.074-0.074-0.018-0.018-0.056-0.037-0.074-0.074l-0.018-0.018c-0.037-0.018-0.056-0.056-0.093-0.074l-0.037-0.038-0.018-0.018c-0.039-0.041-0.081-0.078-0.127-0.11l-0.003-0.002c-0.049-0.033-0.092-0.070-0.13-0.11l-0-0c-0.018-0.018-0.037-0.018-0.037-0.037-0.037-0.019-0.056-0.056-0.093-0.074l-0.13-0.13c-0.037-0.038-0.074-0.056-0.112-0.093-0.018-0.018-0.055-0.038-0.074-0.074-0.062-0.051-0.147-0.118-0.232-0.184l-0.027-0.020c-0.018-0.018-0.056-0.037-0.074-0.056l-0.037-0.018-0.018-0.018h-0.019l-0.056-0.037-0.018-0.018-0.074-0.056-0.018-0.018-0.038-0.037-0.018-0.019c-0.018-0.018-0.056-0.037-0.074-0.055l-0.019-0.018c-0.074-0.056-0.13-0.093-0.204-0.149-0.037-0.018-0.056-0.037-0.092-0.056l-0.019-0.018c-0.037-0.038-0.093-0.056-0.13-0.093-0.018 0-0.018-0.018-0.037-0.018-0.037-0.019-0.074-0.038-0.093-0.056-0.056-0.037-0.093-0.056-0.149-0.093s-0.092-0.056-0.148-0.093l-0.074-0.056c-0.018 0-0.018-0.018-0.037-0.018s-0.037-0.019-0.056-0.019c-0.018 0-0.018-0.018-0.037-0.018l-0.111-0.056-0.018-0.018c-0.018 0-0.018-0.019-0.037-0.019-0.038-0.018-0.074-0.037-0.093-0.056h-0.018c-0.223-0.129-0.464-0.24-0.686-0.37h-0.018c-0.056-0.018-0.112-0.056-0.149-0.074l-0.352-0.149h-0.018c-0.167-0.074-0.315-0.148-0.464-0.204-0.037-0.018-0.074-0.037-0.11-0.037h-0.038l-0.056-0.018c-0.018 0-0.037-0.018-0.074-0.018-0.018 0-0.018 0-0.037-0.018-0.149-0.056-0.278-0.112-0.39-0.149l-0.074-0.018h-0.018l-0.074-0.018c-0.204-0.074-0.389-0.149-0.611-0.204h-0.018c-0.038-0.018-0.074-0.018-0.112-0.037s-0.074-0.019-0.111-0.038c-0.018 0-0.056-0.018-0.074-0.018-0.093-0.018-0.167-0.056-0.26-0.074h-0.037c0-0.111-0.018-0.111-0.037-0.111h-0.038c-0.166-0.037-0.334-0.093-0.519-0.13-0.093-0.018-0.204-0.037-0.296-0.074-0.168-0.037-0.352-0.074-0.52-0.111-0.055-0.018-0.13-0.018-0.185-0.037s-0.13-0.018-0.186-0.037c-0.037 0-0.056 0-0.093-0.019-0.037 0-0.074-0.018-0.111-0.018-0.186-0.018-0.37-0.056-0.556-0.074-0.352-0.038-0.723-0.056-1.075-0.074-0.204 0.018-0.408 0.018-0.612 0.018-0.334 0-0.686 0.018-1.020 0.037h-0.111c-0.37 0.019-0.742 0.056-1.112 0.112-0.074 0.018-0.13 0.018-0.204 0.037l-13.369 13.366z"></path>
<path fill="#222" style="fill: var(--color3, #222)" d="M31.814 18.429v-0.018c0-0.018 0-0.038 0.018-0.074v-0.018c0-0.037 0.019-0.056 0.019-0.093v-0.055l0.018-0.093 0.018-0.074c0-0.074 0.018-0.13 0.018-0.186s0.018-0.111 0.018-0.166c0-0.056 0.019-0.093 0.019-0.13v-0.166c0-0.038 0-0.074 0.018-0.13v-0.018c0-0.056 0.018-0.111 0.018-0.185 0-0.056 0-0.13 0.018-0.186v-1.002c-0.035-3.148-1.341-5.984-3.428-8.025l-0.002-0.002c-2.075-2.052-4.929-3.319-8.079-3.319-0.008 0-0.016 0-0.024 0h0.001c-0.704 0-1.409 0.056-2.076 0.186 1.61 0.98 2.952 2.239 3.995 3.722l0.028 0.042c1.557 2.224 2.373 4.838 2.373 7.582 0 2.726-0.816 5.34-2.373 7.583-1.508 2.144-3.584 3.796-6.010 4.752l-0.090 0.031c-1.408 0.563-3.040 0.89-4.748 0.89-0.013 0-0.025-0-0.038-0h0.002c-2.41 0-4.727-0.648-6.748-1.835h0.018l0.038 0.037 0.037 0.038 0.074 0.074c0.037 0.038 0.093 0.093 0.148 0.13 0.037 0.037 0.074 0.056 0.093 0.092 0.056 0.056 0.111 0.112 0.186 0.167l0.111 0.112 0.018 0.018 0.111 0.093 0.018 0.018c0.038 0.018 0.056 0.056 0.093 0.074l0.037 0.037c0.019 0.018 0.056 0.056 0.093 0.074h0.038c0.018 0.018 0.056 0.037 0.074 0.056 0.093 0.074 0.167 0.13 0.26 0.204 0.018 0.018 0.037 0.037 0.056 0.037 0.021 0.023 0.045 0.041 0.072 0.055l0.001 0.001c0.018 0.018 0.018 0.018 0.037 0.018l0.019 0.018c0.037 0.018 0.074 0.056 0.111 0.074l0.037 0.019c0.018 0.018 0.037 0.018 0.056 0.037s0.055 0.037 0.074 0.056l0.037 0.018c0.074 0.056 0.13 0.092 0.204 0.148 0.038 0.018 0.056 0.037 0.093 0.056l0.018 0.018 0.074 0.056 0.074 0.055c0.037 0.018 0.074 0.056 0.13 0.074 0.037 0.018 0.093 0.055 0.13 0.074h0.149l0.185 0.167c0.019 0.018 0.056 0.037 0.093 0.056 0.056 0.037 0.112 0.074 0.167 0.092 0.037 0.018 0.093 0.056 0.13 0.074 0.241 0.13 0.482 0.259 0.723 0.37 0.056 0.018 0.111 0.056 0.166 0.074 0 0 0.019 0 0.019 0.018 0.056 0.018 0.093 0.056 0.148 0.074 0.148 0.074 0.296 0.148 0.464 0.204l0.11 0.056c0.019 0 0.019 0.018 0.038 0.018 0.056 0.018 0.093 0.037 0.148 0.056 0.13 0.055 0.26 0.092 0.39 0.147 0.037 0.019 0.093 0.038 0.13 0.056 0.204 0.074 0.408 0.148 0.594 0.204 0.037 0.018 0.074 0.018 0.111 0.037 0.056 0.019 0.111 0.038 0.186 0.056l0.056 0.018c0.074 0.018 0.147 0.037 0.203 0.056 0.037 0.018 0.074 0.018 0.112 0.037 0.444 0.111 0.889 0.222 1.334 0.296 0.056 0.019 0.111 0.019 0.185 0.038s0.13 0.018 0.186 0.037c0.056 0.018 0.13 0.018 0.186 0.018 0.742 0.112 1.483 0.149 2.243 0.149 0.742 0 1.502-0.056 2.243-0.148h0.019c0.055 0 0.111-0.019 0.185-0.019l13.368-13.367 0.092 0.074z"></path>
</symbol>
<symbol id="icon-back" viewBox="0 0 32 32">
<path fill="#fff" style="fill: var(--color4, #fff)" d="M9.737 16l14.451-14.453c0.164-0.163 0.266-0.39 0.266-0.64s-0.102-0.476-0.266-0.64l-0-0c-0.163-0.164-0.39-0.266-0.64-0.266s-0.477 0.102-0.64 0.266l-15.095 15.096c-0.164 0.164-0.266 0.39-0.266 0.64s0.102 0.477 0.266 0.64l15.096 15.089c0.161 0.167 0.387 0.27 0.637 0.27s0.476-0.104 0.637-0.27l0-0c0.164-0.163 0.266-0.39 0.266-0.64s-0.102-0.477-0.266-0.64l-14.445-14.451z"></path>
</symbol>
<symbol id="icon-forward" viewBox="0 0 32 32">
<path fill="#fff" style="fill: var(--color4, #fff)" d="M22.263 16l-14.451 14.453c-0.164 0.163-0.266 0.39-0.266 0.64s0.102 0.477 0.266 0.64l0 0c0.163 0.164 0.39 0.266 0.64 0.266s0.476-0.102 0.64-0.266l15.095-15.096c0.164-0.163 0.266-0.39 0.266-0.64s-0.102-0.476-0.266-0.64l-15.095-15.089c-0.161-0.167-0.387-0.271-0.637-0.271s-0.476 0.104-0.637 0.271l-0 0c-0.164 0.163-0.266 0.39-0.266 0.64s0.102 0.477 0.266 0.64l14.445 14.451z"></path>
</symbol>
</defs>
</svg>
